Coordinates
version=1
nRows=8
nColumns=42
inDegrees=yes

Units are S.I. units (second, meters, Newtons, ...)
If the header above contains a line with 'inDegrees', this indicates whether rotational values are in degrees (yes) or radians (no).

endheader
time	pelvis_tilt	pelvis_list	pelvis_rotation	pelvis_tx	pelvis_ty	pelvis_tz	hip_flexion_r	hip_adduction_r	hip_rotation_r	knee_angle_r	knee_adduction_r	knee_angle_r_beta	ankle_angle_r	subtalar_angle_r	mtp_angle_r	hip_flexion_l	hip_adduction_l	hip_rotation_l	knee_angle_l	knee_adduction_l	knee_angle_l_beta	ankle_angle_l	subtalar_angle_l	mtp_angle_l	lumbar_extension	lumbar_bending	lumbar_rotation	arm_flex_r	arm_add_r	arm_rot_r	elbow_flex_r	pro_sup_r	wrist_flex_r	wrist_dev_r	arm_flex_l	arm_add_l	arm_rot_l	elbow_flex_l	pro_sup_l	wrist_flex_l	wrist_dev_l
      1.47000000	     14.79911507	     -1.77335779	      0.58739638	      0.44288132	      0.86677063	     -0.14636829	     -9.02438962	      5.47849763	    -15.23607087	     17.98896147	     -2.53806026	      0.31396661	     20.00093838	     -5.96804539	     -7.50468701	      1.55177824	     -4.55384228	     -8.78035087	     60.60519628	     -4.85698752	      1.05776022	     11.56929951	    -18.76493708	     -7.50468701	    -28.91950166	      0.51454639	      5.20177904	     10.13534612	     -8.43539461	     -3.71617635	     33.53954168	     90.00000001	      0.00000000	      0.00000000	      7.24545521	     -6.12808166	     -0.48287443	     28.70229043	     90.00000001	      0.00000000	      0.00000000
      1.48000000	     14.80555108	     -1.64341977	      0.24931411	      0.45313469	      0.86676594	     -0.14585029	    -10.02676787	      5.29877576	    -15.31193556	     17.51145202	     -2.51914522	      0.30563249	     20.59635192	     -5.45338706	     -7.50452491	      2.81464466	     -4.31820605	     -8.23850021	     59.10211587	     -4.03504576	      1.03152652	     12.14688933	    -18.67334284	     -7.50452491	    -28.89985986	      0.26110064	      5.48088752	     11.06236160	     -8.60228198	     -3.30271383	     34.29433616	     90.00000001	      0.00000000	      0.00000000	      6.13012673	     -5.97511259	     -1.02031749	     28.37554454	     90.00000001	      0.00000000	      0.00000000
      1.49000000	     14.73012426	     -1.56650068	     -0.04661028	      0.46341474	      0.86641197	     -0.14543382	    -10.82479082	      5.14538352	    -15.89640609	     17.22646017	     -2.62454961	      0.30065845	     21.28106958	     -4.13916766	     -7.50380764	      4.09864901	     -4.14747620	     -7.37954251	     57.35833296	     -2.95504558	      1.00109176	     12.52776489	    -18.63954691	     -7.50380764	    -28.78841607	      0.09292800	      5.67816642	     11.73919123	     -9.14458026	     -1.18218407	     35.62580524	     90.00000001	      0.00000000	      0.00000000	      5.21083931	     -5.40259263	     -3.98936928	     27.75011796	     90.00000001	      0.00000000	      0.00000000
      1.50000000	     14.72498096	     -1.51810819	     -0.32180588	      0.47380587	      0.86595445	     -0.14508188	    -11.81250235	      5.04511937	    -16.02825165	     16.77324963	     -2.60202554	      0.29274843	     21.79221228	     -3.68665556	     -7.50368315	      5.18724372	     -4.03352845	     -6.57820580	     55.27562917	     -1.89121879	      0.96474173	     12.80141858	    -18.56614890	     -7.50368315	    -28.73757301	     -0.03490004	      5.95302497	     12.60150207	     -9.25854257	     -1.05520435	     36.37196668	     90.00000001	      0.00000000	      0.00000000	      4.08107724	     -5.27382788	     -4.31288369	     27.51340985	     90.00000001	      0.00000000	      0.00000000
      1.51000000	     14.70369595	     -1.50918275	     -0.56952103	      0.48422609	      0.86527410	     -0.14482446	    -12.75258990	      4.98861410	    -16.27641247	     16.37148439	     -2.63690859	      0.28573631	     22.31891157	     -2.98409321	     -7.50354565	      6.20098527	     -3.96677911	     -5.68208708	     52.92784523	     -0.78811191	      0.92376517	     12.96665365	    -18.53156868	     -7.50354565	    -28.66534372	     -0.10812312	      6.20640020	     13.37380137	     -9.43524664	     -0.68874539	     37.34802856	     90.00000001	      0.00000000	      0.00000000	      2.95343025	     -5.11146666	     -4.85153791	     27.35636716	     90.00000001	      0.00000000	      0.00000000
      1.52000000	     14.71209016	     -1.50947046	     -0.78946024	      0.49472511	      0.86442135	     -0.14469565	    -13.72149753	      4.89258791	    -16.56200402	     16.03505745	     -2.59291560	      0.27986455	     22.83026301	     -2.27090013	     -7.50343321	      7.08676017	     -3.91270984	     -5.01376739	     50.29935813	      0.09697503	      0.87788941	     13.04278200	    -18.47070771	     -7.50343321	    -28.62149706	     -0.14734354	      6.40783981	     14.10934966	     -9.61619994	     -0.26230171	     38.30284925	     90.00000001	      0.00000000	      0.00000000	      1.81686939	     -4.92342172	     -5.37399033	     27.20244520	     90.00000001	      0.00000000	      0.00000000
      1.53000000	     14.69033202	     -1.54427912	     -1.00963870	      0.50530194	      0.86332944	     -0.14464596	    -14.53639092	      4.78063393	    -17.42807137	     15.91606619	     -2.69486399	      0.27778776	     23.66090544	     -0.27878059	     -7.50272971	      7.90313812	     -3.89444849	     -4.39182604	     47.46908701	      0.88946341	      0.82849186	     13.01439501	    -18.42595173	     -7.50272971	    -28.53854400	     -0.15398236	      6.56851352	     14.71653007	    -10.20296888	      1.94101895	     39.59713100	     90.00000001	      0.00000000	      0.00000000	      1.01659700	     -4.26358217	     -8.89862430	     26.61388517	     90.00000001	      0.00000000	      0.00000000
      1.54000000	     14.74821425	     -1.58594487	     -1.21048868	      0.51591897	      0.86222229	     -0.14467184	    -15.57843092	      4.73206672	    -17.53414619	     15.57920179	     -2.65428674	      0.27190837	     24.10955189	      0.16512701	     -7.50263508	      8.51300402	     -3.88859665	     -3.98123486	     44.37692606	      1.48708143	      0.77452347	     12.90513521	    -18.32402297	     -7.50263508	    -28.54775192	     -0.14463847	      6.78787577	     15.43317137	    -10.32801150	      2.07201771	     40.53501612	     90.00000001	      0.00000000	      0.00000000	     -0.07308203	     -4.10900194	     -9.22657892	     26.51663699	     90.00000001	      0.00000000	      0.00000000
